<svg width="30" height="30" viewBox="0 0 30 30" fill="none" xmlns="http://www.w3.org/2000/svg">
<g opacity="0.5">
<circle cx="15" cy="15" r="15" fill="white"/>
<path d="M13.2273 18.3C13.1727 17.8091 13.0909 17.2455 12.9818 16.6091C12.8727 15.9727 12.7909 15.4909 12.7364 15.1636C12.5 13.8545 12.3182 12.7273 12.1909 11.7818C12.0636 10.8364 12 9.89091 12 8.94545V6H18V8.94545C18 9.89091 17.9364 10.8364 17.8091 11.7818C17.6818 12.7273 17.5 13.8545 17.2636 15.1636C17.2091 15.4909 17.1273 15.9727 17.0182 16.6091C16.9091 17.2455 16.8273 17.8091 16.7727 18.3H13.2273ZM17.5909 24.5455H12.2727V20.5909H17.5909V24.5455Z" fill="#444D5F"/>
</g>
</svg>
