<svg width="80" height="80" viewBox="0 0 80 80" fill="none" xmlns="http://www.w3.org/2000/svg">
<path d="M40 80C62.0914 80 80 62.0914 80 40C80 17.9086 62.0914 0 40 0C17.9086 0 0 17.9086 0 40C0 62.0914 17.9086 80 40 80Z" fill="#131313"/>
<path d="M59.4 23.4667H20.6V28.5333H59.4V23.4667Z" fill="#575757"/>
<path d="M59.4 33.5333H20.6V38.6H59.4V33.5333Z" fill="#0BB5BA"/>
<path d="M59.4 43.6H20.6V48.6667H59.4V43.6Z" fill="#575757"/>
<path d="M59.4 53.6H20.6V58.6667H59.4V53.6Z" fill="#575757"/>
<path d="M53 37.3333L66 41.8C66.4 41.9333 66.6667 42.4 66.5333 42.8667C66.4667 43.1333 66.2667 43.2667 66.0667 43.3333L60.3333 45.6667L58 51.3333C57.8 51.7333 57.3333 51.9333 56.9333 51.8C56.7333 51.6667 56.5333 51.5333 56.4667 51.2667L52 38.4C51.8667 38 52.0667 37.5333 52.5333 37.3333C52.6667 37.2667 52.8667 37.2667 53 37.3333Z" fill="#131313" stroke="white" stroke-width="2" stroke-miterlimit="10"/>
</svg>
