<svg width="457" height="58" viewBox="0 0 457 58" fill="none" xmlns="http://www.w3.org/2000/svg">
<path d="M1.68 41V35.144L3.552 34.712C3.776 34.648 3.92 34.568 3.984 34.472C4.048 34.376 4.08 34.232 4.08 34.04V15.32C4.08 15.128 4.048 14.984 3.984 14.888C3.92 14.792 3.776 14.712 3.552 14.648L1.68 14.168V8.36H17.952C21.856 8.36 24.768 9.336 26.688 11.288C28.64 13.208 29.616 15.672 29.616 18.68C29.616 21.272 29.04 23.336 27.888 24.872C26.736 26.408 25.264 27.464 23.472 28.04L27.552 33.8C27.68 34.024 27.904 34.184 28.224 34.28L30.816 34.904V41H19.584L15.648 30.008H13.776V34.088C13.776 34.312 13.808 34.472 13.872 34.568C13.936 34.632 14.064 34.696 14.256 34.76L15.984 35.24V41H1.68ZM15.36 23C16.832 23 17.92 22.68 18.624 22.04C19.328 21.4 19.68 20.392 19.68 19.016C19.68 18.12 19.424 17.336 18.912 16.664C18.4 15.992 17.616 15.656 16.56 15.656H14.496C14.208 15.656 14.016 15.704 13.92 15.8C13.824 15.896 13.776 16.088 13.776 16.376V23H15.36ZM33.3675 41V35.144L35.2875 34.712C35.5115 34.68 35.6555 34.632 35.7195 34.568C35.7835 34.472 35.8155 34.296 35.8155 34.04V15.32C35.8155 15.128 35.7835 14.984 35.7195 14.888C35.6555 14.792 35.5115 14.712 35.2875 14.648L33.3675 14.168V8.36H58.3275V17.864H51.5595L51.1755 16.184C51.1435 15.96 51.0795 15.816 50.9835 15.752C50.9195 15.688 50.7595 15.656 50.5035 15.656H46.2315C45.9435 15.656 45.7515 15.704 45.6555 15.8C45.5595 15.896 45.5115 16.088 45.5115 16.376V20.984L55.2075 21.464V27.704L45.5115 28.184V32.984C45.5115 33.272 45.5595 33.464 45.6555 33.56C45.7515 33.656 45.9435 33.704 46.2315 33.704H51.4155C51.6715 33.704 51.8315 33.672 51.8955 33.608C51.9915 33.512 52.0555 33.352 52.0875 33.128L52.4235 31.496H59.1915V41H33.3675ZM124.35 41.576C120.286 41.576 116.926 40.616 114.27 38.696C111.614 36.744 110.286 33.48 110.286 28.904V20.984C110.286 16.536 111.598 13.24 114.222 11.096C116.878 8.952 120.254 7.88 124.35 7.88C126.782 7.88 128.862 8.136 130.59 8.648C132.318 9.128 134.286 9.864 136.494 10.856L135.966 20.456H127.95L127.422 16.088C126.59 15.736 125.566 15.56 124.35 15.56C121.438 15.56 119.982 17.256 119.982 20.648V28.664C119.982 30.36 120.382 31.656 121.182 32.552C121.982 33.416 123.118 33.848 124.59 33.848C126.606 33.848 128.43 33.16 130.062 31.784H136.062V38.84C134.558 39.576 132.686 40.216 130.446 40.76C128.206 41.304 126.174 41.576 124.35 41.576ZM153.791 41.576C149.727 41.576 146.367 40.616 143.711 38.696C141.055 36.744 139.727 33.48 139.727 28.904V20.984C139.727 16.536 141.039 13.24 143.663 11.096C146.319 8.952 149.695 7.88 153.791 7.88C157.919 7.88 161.311 8.952 163.967 11.096C166.623 13.208 167.951 16.504 167.951 20.984V28.904C167.951 33.48 166.607 36.744 163.919 38.696C161.263 40.616 157.887 41.576 153.791 41.576ZM153.791 33.848C155.263 33.848 156.367 33.416 157.103 32.552C157.871 31.656 158.255 30.36 158.255 28.664V20.648C158.255 18.984 157.871 17.72 157.103 16.856C156.367 15.992 155.263 15.56 153.791 15.56C150.879 15.56 149.423 17.256 149.423 20.648V28.664C149.423 30.36 149.791 31.656 150.527 32.552C151.263 33.416 152.351 33.848 153.791 33.848ZM188.553 8.36H203.097V14.216L201.225 14.696C201.001 14.76 200.857 14.84 200.793 14.936C200.729 15.032 200.697 15.176 200.697 15.368V41H191.625L183.465 26.168V34.04C183.465 34.264 183.497 34.424 183.561 34.52C183.625 34.584 183.753 34.648 183.945 34.712L185.913 35.24V41H171.321V35.144L173.241 34.712C173.465 34.68 173.609 34.632 173.673 34.568C173.737 34.472 173.769 34.296 173.769 34.04V15.32C173.769 15.128 173.737 14.984 173.673 14.888C173.609 14.792 173.465 14.712 173.241 14.648L171.321 14.168V8.36H183.273L191.001 22.904V15.32C191.001 15.128 190.969 14.984 190.905 14.888C190.841 14.792 190.697 14.712 190.473 14.648L188.553 14.168V8.36ZM218.309 41.528C215.749 41.528 213.509 41.256 211.589 40.712C209.669 40.168 207.797 39.48 205.973 38.648C205.973 35.896 206.181 32.936 206.597 29.768H214.421L215.189 33.512C215.605 33.672 216.117 33.8 216.725 33.896C217.333 33.992 217.861 34.04 218.309 34.04C219.237 34.04 219.973 33.848 220.517 33.464C221.061 33.08 221.333 32.568 221.333 31.928C221.333 31.192 220.965 30.632 220.229 30.248C219.525 29.832 218.389 29.4 216.821 28.952C214.613 28.28 212.789 27.592 211.349 26.888C209.909 26.152 208.661 25.064 207.605 23.624C206.581 22.184 206.069 20.296 206.069 17.96C206.069 14.376 207.157 11.8 209.333 10.232C211.509 8.664 214.597 7.88 218.597 7.88C220.773 7.88 222.693 8.12 224.357 8.6C226.021 9.048 227.861 9.752 229.877 10.712C229.877 14.168 229.701 16.968 229.349 19.112H221.525L221.141 15.8C220.501 15.48 219.701 15.32 218.741 15.32C217.781 15.32 217.045 15.464 216.533 15.752C216.053 16.008 215.812 16.472 215.812 17.144C215.812 17.88 216.213 18.52 217.013 19.064C217.845 19.576 218.981 20.072 220.421 20.552C222.533 21.256 224.309 21.976 225.749 22.712C227.221 23.448 228.469 24.504 229.493 25.88C230.549 27.256 231.077 29.016 231.077 31.16C231.077 38.072 226.821 41.528 218.309 41.528ZM239.688 41V35.144L241.56 34.712C241.784 34.648 241.928 34.568 241.992 34.472C242.056 34.376 242.088 34.232 242.088 34.04V17.96L242.04 15.656H241.032C240.776 15.656 240.6 15.688 240.504 15.752C240.44 15.816 240.392 15.96 240.36 16.184L239.976 17.864H233.736V8.36H260.136V17.864H253.896L253.512 16.184C253.48 15.96 253.416 15.816 253.32 15.752C253.256 15.688 253.096 15.656 252.84 15.656H251.832L251.784 17.96V34.04C251.784 34.264 251.816 34.424 251.88 34.52C251.944 34.584 252.072 34.648 252.264 34.712L254.184 35.24V41H239.688ZM263.499 41V35.144L265.419 34.712C265.643 34.68 265.787 34.632 265.851 34.568C265.915 34.472 265.947 34.296 265.947 34.04V15.32C265.947 15.128 265.915 14.984 265.851 14.888C265.787 14.792 265.643 14.712 265.419 14.648L263.499 14.168V8.36H278.091V14.216L276.171 14.696C275.947 14.76 275.803 14.84 275.739 14.936C275.675 15.032 275.643 15.176 275.643 15.368V34.04C275.643 34.264 275.675 34.424 275.739 34.52C275.803 34.584 275.931 34.648 276.123 34.712L278.091 35.24V41H263.499ZM287.406 41V35.144L289.278 34.712C289.502 34.648 289.646 34.568 289.71 34.472C289.774 34.376 289.806 34.232 289.806 34.04V17.96L289.758 15.656H288.75C288.494 15.656 288.318 15.688 288.222 15.752C288.158 15.816 288.11 15.96 288.078 16.184L287.694 17.864H281.454V8.36H307.854V17.864H301.614L301.23 16.184C301.198 15.96 301.134 15.816 301.038 15.752C300.974 15.688 300.814 15.656 300.558 15.656H299.55L299.502 17.96V34.04C299.502 34.264 299.534 34.424 299.598 34.52C299.662 34.584 299.79 34.648 299.982 34.712L301.902 35.24V41H287.406ZM325.618 41.576C321.138 41.576 317.746 40.504 315.442 38.36C313.138 36.216 311.986 33.064 311.986 28.904V15.272C311.986 15.048 311.954 14.904 311.89 14.84C311.826 14.744 311.698 14.664 311.506 14.6L309.778 14.12V8.36H323.842V14.072L322.162 14.6C321.97 14.664 321.842 14.744 321.778 14.84C321.714 14.904 321.682 15.032 321.682 15.224V28.664C321.682 30.584 321.97 31.928 322.546 32.696C323.122 33.464 324.146 33.848 325.618 33.848C327.122 33.848 328.162 33.464 328.738 32.696C329.346 31.928 329.65 30.584 329.65 28.664V15.272C329.65 15.048 329.618 14.904 329.554 14.84C329.49 14.744 329.362 14.664 329.17 14.6L327.442 14.12V8.36H341.554V14.072L339.826 14.6C339.634 14.664 339.506 14.744 339.442 14.84C339.378 14.904 339.346 15.032 339.346 15.224V28.904C339.346 33.064 338.178 36.216 335.842 38.36C333.538 40.504 330.13 41.576 325.618 41.576ZM349.422 41V35.144L351.294 34.712C351.518 34.648 351.662 34.568 351.726 34.472C351.79 34.376 351.822 34.232 351.822 34.04V17.96L351.774 15.656H350.766C350.51 15.656 350.334 15.688 350.238 15.752C350.174 15.816 350.126 15.96 350.094 16.184L349.71 17.864H343.47V8.36H369.87V17.864H363.63L363.246 16.184C363.214 15.96 363.15 15.816 363.054 15.752C362.99 15.688 362.83 15.656 362.574 15.656H361.566L361.518 17.96V34.04C361.518 34.264 361.55 34.424 361.614 34.52C361.678 34.584 361.806 34.648 361.998 34.712L363.918 35.24V41H349.422ZM373.234 41V35.144L375.154 34.712C375.378 34.68 375.522 34.632 375.586 34.568C375.65 34.472 375.682 34.296 375.682 34.04V15.32C375.682 15.128 375.65 14.984 375.586 14.888C375.522 14.792 375.378 14.712 375.154 14.648L373.234 14.168V8.36H387.826V14.216L385.906 14.696C385.682 14.76 385.538 14.84 385.474 14.936C385.41 15.032 385.378 15.176 385.378 15.368V34.04C385.378 34.264 385.41 34.424 385.474 34.52C385.538 34.584 385.666 34.648 385.858 34.712L387.826 35.24V41H373.234ZM406.213 41.576C402.149 41.576 398.789 40.616 396.133 38.696C393.477 36.744 392.149 33.48 392.149 28.904V20.984C392.149 16.536 393.461 13.24 396.085 11.096C398.741 8.952 402.117 7.88 406.213 7.88C410.341 7.88 413.733 8.952 416.389 11.096C419.045 13.208 420.373 16.504 420.373 20.984V28.904C420.373 33.48 419.029 36.744 416.341 38.696C413.685 40.616 410.309 41.576 406.213 41.576ZM406.213 33.848C407.685 33.848 408.789 33.416 409.525 32.552C410.293 31.656 410.677 30.36 410.677 28.664V20.648C410.677 18.984 410.293 17.72 409.525 16.856C408.789 15.992 407.685 15.56 406.213 15.56C403.301 15.56 401.845 17.256 401.845 20.648V28.664C401.845 30.36 402.213 31.656 402.949 32.552C403.685 33.416 404.773 33.848 406.213 33.848ZM440.975 8.36H455.519V14.216L453.647 14.696C453.423 14.76 453.279 14.84 453.215 14.936C453.151 15.032 453.119 15.176 453.119 15.368V41H444.047L435.887 26.168V34.04C435.887 34.264 435.919 34.424 435.983 34.52C436.047 34.584 436.175 34.648 436.367 34.712L438.335 35.24V41H423.743V35.144L425.663 34.712C425.887 34.68 426.031 34.632 426.095 34.568C426.159 34.472 426.191 34.296 426.191 34.04V15.32C426.191 15.128 426.159 14.984 426.095 14.888C426.031 14.792 425.887 14.712 425.663 14.648L423.743 14.168V8.36H435.695L443.423 22.904V15.32C443.423 15.128 443.391 14.984 443.327 14.888C443.263 14.792 443.119 14.712 442.895 14.648L440.975 14.168V8.36Z" fill="white"/>
<path d="M91.5677 31.6932V29.9121C93.87 29.8252 94.6519 29.3329 94.6519 26.8279V17.6765H99.0683V19.0956L98.3154 19.1824C97.4755 19.2693 97.099 19.5444 97.099 20.6304V26.8858C97.099 32.0407 91.5677 31.6932 91.5677 31.6932Z" fill="white"/>
<path d="M73.3071 26.9003V20.6304C73.3071 19.5444 72.9451 19.2693 72.0908 19.1824L71.3379 19.0956V17.6765H75.7543V26.8424C75.7543 29.3474 76.5362 29.8397 78.8385 29.9266V31.7076C78.8385 31.6932 73.3071 32.0407 73.3071 26.9003Z" fill="white"/>
<path d="M77.7097 36.6164V35.1828L78.4626 35.067C79.3025 34.9512 79.679 34.6471 79.679 33.619V33.4018C79.679 31.7656 80.4319 30.8968 82.1261 30.4624C82.1261 30.4624 79.679 29.8832 79.679 26.9003V20.6304C79.679 19.5444 79.317 19.2693 78.4626 19.1824L77.7097 19.0956V17.6765H82.1261V26.8424C82.1261 29.3474 82.908 29.8397 85.2103 29.9266V31.7076C82.8935 31.7076 82.1261 32.3448 82.1261 33.4018V36.6164H77.7097Z" fill="white"/>
<path d="M88.2946 36.6164V33.4018C88.2946 32.3448 87.5271 31.7076 85.2103 31.7076V29.9266C87.5126 29.8397 88.2946 29.3474 88.2946 26.8424V17.6765H92.711V19.0956L91.958 19.1824C91.1182 19.2693 90.7417 19.5444 90.7417 20.6304V26.8858C90.7417 29.8832 88.2946 30.4479 88.2946 30.4479C89.9887 30.8678 90.7417 31.7511 90.7417 33.3873V33.6045C90.7417 34.6326 91.1037 34.9367 91.958 35.0525L92.711 35.1684V36.5874H88.2946V36.6164Z" fill="white"/>
<path d="M105.993 12.9995H65V15.2149H105.993V12.9995Z" fill="white"/>
<path d="M105.993 8.25H65V10.4654H105.993V8.25Z" fill="white"/>
<path d="M100.285 38.8753H71.3379V41.25H100.285V38.8753Z" fill="white"/>
</svg>
