<svg width="69" height="21" fill="none" xmlns="http://www.w3.org/2000/svg"><g clip-path="url(#clip0)" fill="#fff"><path d="M30.293 9.37c0-4.233 1.331-6.631 4.763-6.631 1.156 0 2.172.317 2.802.67l-.35 2.363c-.736-.282-1.506-.494-2.312-.494-1.155 0-1.82.423-1.82 2.998v2.046c0 2.787.7 3.316 1.82 3.316.84 0 1.506-.282 2.277-.67l.56 2.257c-.665.388-1.681.847-3.047.847-3.397 0-4.693-2.54-4.693-6.702zM54.773.587l.56 2.257v8.254c-.35.141-.7.283-1.33.283-.84 0-1.191-.459-1.191-1.658V.587H49.31l.56 2.257v6.209c0 3.562 1.576 4.656 3.362 4.656.84 0 1.366-.177 1.576-.283l.77-1.27.596 1.341h2.031V.587h-3.432zM14.919 2.95l.56 2.258v8.254c-.35.14-.7.282-1.33.282-.841 0-1.191-.459-1.191-1.658V2.95H9.456l.56 2.258v6.208c0 3.562 1.576 4.656 3.362 4.656.84 0 1.366-.176 1.576-.282l.77-1.27.596 1.34h2.031V2.95H14.92zm9.105 12.875l-.56-2.257V5.314c.35-.141.7-.283 1.33-.283.841 0 1.192.459 1.192 1.658v9.136h3.502l-.56-2.257V7.359c0-3.562-1.576-4.656-3.363-4.656-.84 0-1.365.177-1.576.283l-.77 1.27-.595-1.341h-2.032V15.79h3.433v.035zM64.229.587h-4.413l.56 2.257v8.36l-.56 2.258h3.502V9.687h.946c2.732 0 4.307-1.375 4.307-4.55 0-3.174-1.575-4.55-4.342-4.55zm1.296 5.15c0 1.41-.35 1.799-1.366 1.799h-.876V2.95h.84c1.016 0 1.402.353 1.402 1.729v1.058zM4.413 2.95H0l.56 2.258v8.36L0 15.824h3.502v-3.739h.946c2.731 0 4.307-1.376 4.307-4.55 0-3.21-1.576-4.586-4.342-4.586zm1.295 5.185c0 1.411-.35 1.8-1.365 1.8h-.876V5.313h.84c1.016 0 1.401.352 1.401 1.728v1.093zm42.061-2.927l.56-2.258h-4.027l.56 2.258V8.1H42.27V5.208l.56-2.258h-4.062l.56 2.258v8.36l-.56 2.257h4.063l-.56-2.257v-3.105h2.591v3.105l-.56 2.257h4.027l-.56-2.257v-8.36zm.561 12.981H0v2.363h48.33v-2.363zm19.856-2.364H48.33v2.363h19.857v-2.363z"/></g><defs><clipPath id="clip0"><path fill="#fff" transform="translate(0 .587)" d="M0 0h68.571v20H0z"/></clipPath></defs></svg>