<svg width="80" height="80" fill="none" xmlns="http://www.w3.org/2000/svg"><path d="M40 80c22.091 0 40-17.909 40-40S62.091 0 40 0 0 17.909 0 40s17.909 40 40 40z" fill="#131313"/><path d="M71.467 42.667c.333-2.6-.467-4.867-3.2-6.267 0 0-5.667-3.2-6.734-4-1.2-.867-2.533-1.8-4.2-2-1.666-.2-3.333 0-5.466 0-2.134 0-2.467.667-2.667 1.733-.133 1.134.333 1.267.333 1.267-2.2-.2-2.8.133-3.466 1.867-.667 1.666.2 2.466.2 2.466-2.067-.266-2.467.534-2.667 1.934-.2 1.4.6 2 .6 2-1.133-.134-1.467.333-1.8 1.8-.333 1.466 1.4 2.866 2.533 3.6 1.134.733 7.734 2.733 7.734 2.733.133 2.2.266 3.267-1.667 5.933-1.933 2.667-1.867 4.8-1.133 7.934.733 3.133 3.066 2.266 3.066 2.266s.267-4.066.467-5.4c.133-1.333 1.667-2.933 3.533-4.333 2.867-2.267 9.534-6.933 9.534-6.933 3.533-2.067 4.666-3.867 5-6.6z" stroke="#F5F5F5" stroke-width="2" stroke-miterlimit="10" stroke-linecap="round" stroke-linejoin="round"/><path d="M44.2 41.733l5.2 1.134m-3.067-5.134l5.8.8M49.6 33.4h4.933" stroke="#F5F5F5" stroke-width="1.5" stroke-miterlimit="10" stroke-linecap="round" stroke-linejoin="round"/><path d="M52.4 49.4l2.867 1.467" stroke="#F5F5F5" stroke-miterlimit="10" stroke-linecap="round" stroke-linejoin="round"/><path d="M12.733 37.667s2.467-7.2 2.734-8.934c.266-1.733 1.066-2.266 2.6-3 1.533-.733 4.733-3.6 6-6.733 1.266-3.133 1.2-2.733 1.2-2.733S27.333 16.2 27.6 20c.267 3.8-2.8 6.6-3.467 7.667-.666 1.066-.8 2.466-.8 2.466s4.467-1 5.334-1.133c.866-.133 5.2-.267 6.8 0 1.6.267 1.733 1 2.066 2 .267 1 .734 2-1.066 3 0 0 1.266.333 1.666 2 .334 1.667 0 2.733-2.333 3.667 0 0 1.067.533 1 1.933-.067 1.4-.067 2.067-1.467 2.467 0 0 .867 1.866-.4 2.8-1.266.933-3.333 1.333-5.2 1.333 0 0-3.866 3.133-7.2 3.867-2.866.6-5.2-.2-5.2-.2l-3.8 1.333L8.4 39.467l4.333-1.8z" stroke="#F5F5F5" stroke-width="2" stroke-miterlimit="10" stroke-linecap="round" stroke-linejoin="round"/><path d="M23 29.8s1.4 5.4.467 8.067" stroke="#F5F5F5" stroke-miterlimit="10" stroke-linecap="round" stroke-linejoin="round"/><path d="M36.533 34s-4.266 1.8-5.466 2.133c-1.2.334-4.267.867-4.934.867-.733.067-1.466-.667-.8-2.333.534-1.334 4.6-2.334 4.6-2.334s1.934-2.2 3.4-2.666" stroke="#F5F5F5" stroke-width="1.5" stroke-miterlimit="10" stroke-linecap="round" stroke-linejoin="round"/><path d="M28.2 36.733s.467-.466.2-1c-.267-.533-.933-1.133-2.133-.8-1.2.334-1.2.667-1.2.867" stroke="#F5F5F5" stroke-miterlimit="10" stroke-linecap="round" stroke-linejoin="round"/><path d="M35.867 39.6s-4 1.6-5.067 1.867c-1.067.266-3.267-.667-4.467-.934-1.133-.266-2.6-1.933 0-3.533" stroke="#F5F5F5" stroke-width="1.5" stroke-miterlimit="10" stroke-linecap="round" stroke-linejoin="round"/><path d="M24.933 38.933s-.133-.733 1.2-.733c.8 0 1.134.333 1.067.867 0 .733.6 1.733-1.333 1.333" stroke="#F5F5F5" stroke-miterlimit="10" stroke-linecap="round" stroke-linejoin="round"/><path d="M29 41.267l-.867.533s-2.933-.2-4.4.333c-1.466.534-1.2 2.6.134 2.934 1.266.266 4.266.666 5.466.733 1.2.067 6.067-1.667 6.067-1.667" stroke="#F5F5F5" stroke-width="1.5" stroke-miterlimit="10" stroke-linecap="round" stroke-linejoin="round"/><path d="M23.2 44.733s2.667.4 2.933-.333c.267-.733.067-1.8-1.066-1.8-1.134-.067-1.867-.267-2.334.667" stroke="#F5F5F5" stroke-miterlimit="10" stroke-linecap="round" stroke-linejoin="round"/><path d="M29.733 48.2s-3.2-.133-4.133-.933c-.933-.734-.6-1.8.133-1.934" stroke="#F5F5F5" stroke-width="1.5" stroke-miterlimit="10" stroke-linecap="round" stroke-linejoin="round"/><path d="M25.133 46.8s.734.467 1.6.4c.867-.067.8-.667.8-1.067 0-.4-1.066-.733-2.266-.466m-11.4-1.934s3.266 2.867 8.933.134" stroke="#F5F5F5" stroke-miterlimit="10" stroke-linecap="round" stroke-linejoin="round"/></svg>