<svg width="80" height="80" fill="none" xmlns="http://www.w3.org/2000/svg"><path d="M40 80c22.091 0 40-17.909 40-40S62.091 0 40 0 0 17.909 0 40s17.909 40 40 40z" fill="#131313"/><path d="M56.533 62.4H23.467V17.6H45.8l10.733 10.8v34z" fill="#131313" stroke="#fff" stroke-width="2" stroke-miterlimit="10"/><path d="M50.333 24.333H29.667M50.333 28.4H29.667" stroke="#575757" stroke-width="2" stroke-miterlimit="10"/><path d="M50.333 28.4H33.667m16.666 4H29.667" stroke="#F9564A" stroke-width="2" stroke-miterlimit="10"/><path d="M50.333 32.4H40m10.333 4.067H29.667" stroke="#1F90EF" stroke-width="2" stroke-miterlimit="10"/><path d="M50.333 40.467H29.667" stroke="#F90" stroke-width="2" stroke-miterlimit="10"/><path d="M50.333 44.533H29.667" stroke="#FF6BB2" stroke-width="2" stroke-miterlimit="10"/><path d="M50.333 44.533H45.2" stroke="#0BB5BA" stroke-width="2" stroke-miterlimit="10"/><path d="M38.467 44.533h-8.8" stroke="#BA83F7" stroke-width="2" stroke-miterlimit="10"/><path d="M50.333 48.533H29.667" stroke="#0BB5BA" stroke-width="2" stroke-miterlimit="10"/><path d="M35.4 40.467h-5.733" stroke="#1F90EF" stroke-width="2" stroke-miterlimit="10"/><path d="M50.333 52.533H29.667M50.333 56.6H29.667" stroke="#0BB5BA" stroke-width="2" stroke-miterlimit="10"/><path d="M50.333 56.6H47" stroke="#7639E6" stroke-width="2" stroke-miterlimit="10"/><path d="M45.8 28.4h10.733L45.8 17.6v10.8z" fill="#131313" stroke="#fff" stroke-width="2" stroke-miterlimit="10" stroke-linejoin="round"/></svg>