<svg width="20" height="20" fill="none" xmlns="http://www.w3.org/2000/svg"><path d="M14.678 13.574c-.747 0-1.375.627-1.375 1.562v.024c0 .935.628 1.562 1.375 1.562.746 0 1.386-.615 1.386-1.562v-.024c0-.946-.64-1.562-1.386-1.562zM4.051 4.32a.677.677 0 00.19-.13.676.676 0 00.13-.19.48.48 0 00.048-.225.617.617 0 00-.048-.248.693.693 0 00-.118-.202.677.677 0 00-.19-.13.53.53 0 00-.237-.047.53.53 0 00-.237.047.59.59 0 00-.32.331.548.548 0 00-.047.25A.48.48 0 003.27 4c.035.071.083.13.13.19a.69.69 0 00.19.13.481.481 0 00.225.047c.082 0 .154-.024.236-.047zm4.751 9.893H4.715v1.515h4.087v-1.515z" fill="#fff"/><path d="M0 0v20h19.973V0H0zm2.37 3.763c0-.307.094-.603.295-.875.119-.154.237-.284.38-.367a1.24 1.24 0 01.438-.166c.201-.024.355-.035.45-.035.498 0 .877.153 1.15.461.319.343.473.746.473 1.207v4.604h2.227a.328.328 0 00.272-.119c.036-.035.06-.13.06-.284V2.414h1.587V8.32c0 .437-.095.792-.296 1.053-.249.331-.652.509-1.197.509H3.341v-1.29h.628V5.16h-.166c-.403 0-.735-.13-1.02-.403a1.32 1.32 0 01-.414-.994zm7.818 13.267H3.317v-6.344h1.386V12.9H8.79v-2.213h1.398v6.344zm2.037-12.77c-.651 0-.84.012-1.149.048v-1.35c.32.06.521.06 1.173.06h3.234c.201 0 .284 0 .438-.012.06-.012.06-.012.119-.012-.071-.13-.071-.13-.26-.426l.686-.213c.261.367.32.485.557.994l-.26.095.296.378c-.048.13-.06.178-.107.356-.296 1.207-.77 2.189-1.457 3.005-.699.84-1.54 1.432-2.867 2.048-.296-.568-.426-.734-.96-1.266.652-.214 1.055-.391 1.6-.734 1.137-.71 1.907-1.752 2.191-2.97h-3.234zm5.438 10.888c0 1.882-1.232 2.923-2.57 2.923-.854 0-1.387-.39-1.766-.84v.733h-1.6v-7.692h1.6v2.852c.391-.532.924-.911 1.765-.911 1.315 0 2.57 1.03 2.57 2.923v.012zm-.439-11.823c-.142-.366-.272-.603-.532-1.017l.675-.237c.26.355.379.58.533.994l-.675.26z" fill="#fff"/></svg>