<svg width="80" height="80" fill="none" xmlns="http://www.w3.org/2000/svg"><path d="M40 80c22.091 0 40-17.909 40-40S62.091 0 40 0 0 17.909 0 40s17.909 40 40 40z" fill="#131313"/><path d="M45.733 50.467H19.267V14.6h17.866l8.6 8.667v27.2z" fill="#131313" stroke="#fff" stroke-width="2" stroke-miterlimit="10"/><path d="M40.8 19.6H24.2m16.6 3.6H24.2m16.6 3.667H24.2" stroke="#575757" stroke-width="2" stroke-miterlimit="10"/><path d="M40.8 26.867h-4.133m4.133 3.6H24.2m16.6 3.666H24.2" stroke="#0BB5BA" stroke-width="2" stroke-miterlimit="10"/><path d="M40.8 37.733H24.2" stroke="#575757" stroke-width="2" stroke-miterlimit="10"/><path d="M27.867 37.733H24.2" stroke="#0BB5BA" stroke-width="2" stroke-miterlimit="10"/><path d="M40.8 41.4H24.2M40.8 45H24.2" stroke="#575757" stroke-width="2" stroke-miterlimit="10"/><path d="M37.133 23.267h8.6l-8.6-8.667v8.667z" fill="#131313" stroke="#fff" stroke-width="2" stroke-miterlimit="10" stroke-linejoin="round"/><path d="M60.733 66.333H34.267V30.467h17.866l8.6 8.666v27.2z" fill="#131313" stroke="#fff" stroke-width="2" stroke-miterlimit="10"/><path d="M55.8 35.4H39.2m16.6 3.667H39.2" stroke="#575757" stroke-width="2" stroke-miterlimit="10"/><path d="M55.8 39.067H40.867m14.933 3.6H39.2m16.6 3.666H39.2M55.8 50H39.2m16.6 3.6H39.2" stroke="#0BB5BA" stroke-width="2" stroke-miterlimit="10"/><path d="M55.8 57.267H39.2" stroke="#575757" stroke-width="2" stroke-miterlimit="10"/><path d="M53 57.267H39.2" stroke="#0BB5BA" stroke-width="2" stroke-miterlimit="10"/><path d="M55.8 60.867H39.2" stroke="#575757" stroke-width="2" stroke-miterlimit="10"/><path d="M52.133 39.133h8.6l-8.6-8.666v8.666z" fill="#131313" stroke="#fff" stroke-width="2" stroke-miterlimit="10" stroke-linejoin="round"/></svg>