<svg width="113" height="23" fill="none" xmlns="http://www.w3.org/2000/svg"><g clip-path="url(#clip0)" fill="#fff"><path d="M16.717 15.518c-.821 0-1.512.69-1.512 1.719v.026c0 1.028.69 1.718 1.512 1.718.82 0 1.524-.677 1.524-1.718v-.026c0-1.042-.703-1.719-1.524-1.719zM5.028 5.339a.745.745 0 00.209-.144.744.744 0 00.143-.208.528.528 0 00.052-.247.68.68 0 00-.052-.274.762.762 0 00-.13-.22.745.745 0 00-.209-.144.584.584 0 00-.26-.052.584.584 0 00-.261.052.65.65 0 00-.352.364.603.603 0 00-.052.274c0 .09.013.169.052.247.04.078.091.143.143.208.065.065.13.105.209.144a.53.53 0 00.247.052c.092 0 .17-.026.261-.052zm5.225 10.882H5.758v1.666h4.495v-1.666z"/><path d="M.571.587v22h21.97v-22H.572zm2.607 4.14c0-.339.104-.664.325-.964.13-.169.261-.312.417-.403.157-.091.313-.157.483-.183.221-.026.39-.039.495-.039.547 0 .964.17 1.264.508.352.378.52.82.52 1.328v5.064h2.45a.36.36 0 00.3-.13c.04-.04.066-.144.066-.313V3.243h1.746v6.495c0 .482-.104.873-.326 1.159-.274.364-.717.56-1.316.56H4.246v-1.42h.69V6.264h-.182c-.443 0-.808-.144-1.12-.443-.3-.286-.456-.65-.456-1.093zm8.6 14.593H4.22v-6.978h1.525v2.434h4.495v-2.434h1.538v6.978zm2.241-14.047c-.716 0-.925.013-1.264.052V3.841c.352.065.574.065 1.29.065h3.558c.221 0 .313 0 .482-.013.065-.013.065-.013.13-.013-.078-.143-.078-.143-.286-.468l.755-.235c.287.404.352.534.613 1.094l-.287.104.326.417c-.052.143-.065.195-.117.39-.326 1.328-.847 2.408-1.603 3.307-.769.924-1.694 1.575-3.154 2.252-.325-.625-.469-.807-1.055-1.393.717-.234 1.16-.43 1.76-.807 1.25-.781 2.097-1.927 2.41-3.268h-3.558zM20 17.25c0 2.07-1.355 3.215-2.827 3.215-.938 0-1.525-.43-1.942-.924v.807h-1.759v-8.462h1.76v3.138c.43-.586 1.016-1.003 1.94-1.003 1.447 0 2.828 1.133 2.828 3.216v.013zm-.482-13.005c-.156-.404-.3-.664-.586-1.12l.743-.26c.287.39.417.638.586 1.094l-.743.286zM30.751 6.81c.443 0 .86.038 1.225.117.365.078.678.208.938.39.26.182.47.417.613.716.143.3.221.664.221 1.107 0 .468-.104.872-.326 1.184-.208.313-.534.573-.95.768.572.17 1.015.456 1.29.872.286.417.43.912.43 1.497 0 .47-.092.886-.274 1.224a2.33 2.33 0 01-.743.846 3.2 3.2 0 01-1.069.482 4.865 4.865 0 01-1.225.156h-4.547V6.796h4.417v.013zm-.26 3.788c.364 0 .664-.092.912-.26.234-.17.351-.456.351-.86 0-.221-.039-.404-.117-.534a.837.837 0 00-.313-.325 1.579 1.579 0 00-.456-.17 3.539 3.539 0 00-.534-.051h-1.928v2.187h2.084v.013zm.117 3.983c.195 0 .39-.026.573-.065a1.36 1.36 0 00.482-.195c.144-.091.248-.222.339-.378.078-.156.13-.364.13-.599 0-.481-.13-.82-.404-1.028-.273-.208-.625-.313-1.081-.313h-2.241v2.578h2.202zm4.822-3.268c.169-.442.403-.82.703-1.132a3.07 3.07 0 011.107-.716c.43-.17.913-.26 1.447-.26a3.92 3.92 0 011.446.26c.43.17.808.417 1.108.716.313.312.547.69.717 1.133.17.442.247.937.247 1.47 0 .547-.078 1.029-.247 1.471a3.12 3.12 0 01-.717 1.12 3.07 3.07 0 01-1.108.716c-.43.17-.925.247-1.446.247-.534 0-1.017-.078-1.447-.247a3.187 3.187 0 01-1.107-.716 3.028 3.028 0 01-.704-1.12c-.17-.442-.247-.924-.247-1.47 0-.534.09-1.029.247-1.472zm1.693 2.266c.052.26.144.494.274.69.13.208.3.364.508.494.209.117.47.182.795.182.313 0 .586-.065.795-.182.208-.117.378-.286.508-.495.13-.208.222-.442.274-.69.052-.26.078-.52.078-.793 0-.274-.026-.534-.078-.808a1.916 1.916 0 00-.274-.69c-.13-.195-.3-.364-.508-.494-.209-.13-.482-.195-.795-.195-.313 0-.573.065-.795.195-.208.13-.378.286-.508.494-.13.196-.222.43-.274.69a4.136 4.136 0 000 1.602zm6.333-2.266c.17-.442.404-.82.704-1.132.3-.313.678-.547 1.108-.716.43-.17.912-.26 1.446-.26.534 0 1.016.09 1.446.26.43.17.808.417 1.108.716.313.312.547.69.717 1.133.17.442.247.937.247 1.47 0 .547-.078 1.029-.247 1.471a3.12 3.12 0 01-.717 1.12 3.07 3.07 0 01-1.108.716c-.43.17-.925.247-1.446.247-.534 0-1.017-.078-1.447-.247a3.186 3.186 0 01-1.107-.716 3.028 3.028 0 01-.704-1.12c-.17-.442-.247-.924-.247-1.47 0-.534.078-1.029.247-1.472zm1.694 2.266c.052.26.144.494.274.69.13.208.3.364.508.494.209.117.47.182.782.182.313 0 .586-.065.795-.182.208-.117.378-.286.508-.495.13-.208.222-.442.274-.69.052-.26.078-.52.078-.793 0-.274-.026-.534-.078-.808a1.916 1.916 0 00-.274-.69c-.13-.195-.3-.364-.508-.494-.209-.13-.482-.195-.795-.195-.313 0-.573.065-.782.195-.208.13-.378.286-.508.494-.13.196-.222.43-.274.69a4.136 4.136 0 000 1.602zm8.066-4.192v.95h.04a2.17 2.17 0 01.925-.859 2.615 2.615 0 011.16-.273c.495 0 .912.065 1.224.208.326.13.574.325.756.56.183.234.313.533.391.885.078.351.117.729.117 1.145v4.18h-1.876v-3.841c0-.56-.091-.976-.26-1.25-.183-.273-.483-.416-.926-.416-.508 0-.873.156-1.108.455-.221.3-.338.794-.338 1.484v3.554h-1.864V9.387h1.76zm7.832 0v.924h.026c.248-.351.547-.625.886-.82a2.386 2.386 0 011.186-.286c.43 0 .82.078 1.173.247.352.17.625.456.808.885.195-.3.469-.56.82-.794.34-.221.756-.338 1.225-.338.365 0 .691.039 1.004.13.313.09.573.234.782.416.221.196.39.443.508.755.117.313.182.69.182 1.12v4.543h-1.863v-3.84a9.64 9.64 0 00-.026-.638 1.28 1.28 0 00-.143-.52.833.833 0 00-.352-.352c-.157-.091-.365-.13-.626-.13-.26 0-.469.052-.638.156a1.2 1.2 0 00-.378.39 1.505 1.505 0 00-.183.547 5.065 5.065 0 00-.052.625v3.775h-1.863v-3.814c0-.195 0-.404-.013-.599a1.858 1.858 0 00-.117-.547.822.822 0 00-.326-.403c-.157-.104-.378-.156-.678-.156a1.47 1.47 0 00-.352.065 1.177 1.177 0 00-.417.221c-.143.104-.247.273-.352.469-.09.208-.143.468-.143.807v3.931h-1.863v-6.77h1.785zm12.08 5.168c.273.273.677.404 1.212.404.377 0 .703-.092.977-.287.274-.182.443-.39.495-.599h1.642c-.26.807-.665 1.393-1.212 1.745-.547.351-1.199.52-1.968.52a3.919 3.919 0 01-1.446-.26 3.045 3.045 0 01-1.095-.729c-.3-.312-.52-.69-.69-1.133a4.31 4.31 0 01-.248-1.444c0-.508.078-.977.248-1.42.17-.442.404-.82.703-1.132a3.36 3.36 0 011.095-.755c.43-.182.9-.273 1.407-.273.574 0 1.082.117 1.512.338.43.221.782.52 1.055.898.274.378.47.807.6 1.29.117.48.17.988.13 1.51h-4.9c.053.611.209 1.054.483 1.327zm2.11-3.58c-.22-.247-.56-.364-1.016-.364-.3 0-.547.052-.742.156a1.364 1.364 0 00-.47.377 1.48 1.48 0 00-.247.469 2.23 2.23 0 00-.091.443h3.036c-.091-.47-.248-.834-.47-1.08zm5.435 3.58c.273.273.677.404 1.212.404.377 0 .703-.092.977-.287.273-.182.443-.39.495-.599h1.642c-.26.807-.665 1.393-1.212 1.745-.547.351-1.199.52-1.968.52a3.92 3.92 0 01-1.446-.26 3.046 3.046 0 01-1.785-1.861 4.008 4.008 0 01-.248-1.446c0-.507.078-.976.248-1.418.17-.443.404-.82.703-1.133a3.362 3.362 0 011.095-.755c.43-.182.9-.273 1.407-.273.574 0 1.082.117 1.512.338.43.221.782.52 1.055.898.274.378.47.807.6 1.29.117.48.17.988.13 1.51h-4.9c.053.611.196 1.054.483 1.327zm2.11-3.58c-.22-.247-.56-.364-1.016-.364-.3 0-.547.052-.743.156a1.365 1.365 0 00-.469.377 1.482 1.482 0 00-.247.469c-.052.17-.078.312-.092.443h3.037c-.091-.47-.248-.834-.47-1.08zm9.344-4.165v7.64H96.7v1.732h-6.633V6.81h2.059zm5.447 4.673c.026-.443.143-.794.326-1.094.195-.286.443-.52.742-.69.3-.169.639-.3 1.004-.377a5.462 5.462 0 011.12-.117c.339 0 .691.026 1.043.078.352.052.664.143.964.286.287.143.521.339.704.586.182.247.273.586.273.99v3.527c0 .313.013.599.053.885.039.287.091.495.182.625h-1.89a2.377 2.377 0 01-.091-.325 1.421 1.421 0 01-.039-.339c-.3.313-.651.52-1.055.638a4.455 4.455 0 01-1.238.182c-.326 0-.626-.039-.9-.117a1.925 1.925 0 01-.73-.364 1.788 1.788 0 01-.494-.625 2.185 2.185 0 01-.183-.911c0-.391.065-.703.209-.95a1.79 1.79 0 01.521-.6c.209-.143.456-.26.73-.338.273-.078.56-.13.834-.182.286-.04.56-.078.834-.104.273-.026.508-.066.729-.118.209-.052.378-.13.496-.234a.513.513 0 00.169-.443c0-.195-.039-.364-.104-.481a.754.754 0 00-.261-.274 1.073 1.073 0 00-.378-.13 2.632 2.632 0 00-.469-.039c-.365 0-.651.078-.873.235-.209.156-.339.416-.365.78h-1.863v.04zm4.313 1.367a.943.943 0 01-.3.169 3.155 3.155 0 01-.378.104c-.13.026-.273.052-.43.065a5.7 5.7 0 00-.443.065c-.143.026-.273.065-.417.104-.13.04-.247.104-.352.183a.875.875 0 00-.247.286.872.872 0 00-.091.43c0 .169.026.312.09.416a.72.72 0 00.248.273c.105.066.222.118.365.144.144.026.287.039.43.039.365 0 .652-.065.86-.183.196-.117.352-.273.443-.442.092-.17.157-.339.183-.52.026-.17.039-.313.039-.418v-.715zm5.173-6.04v3.41h.026c.222-.352.535-.612.925-.768a3.253 3.253 0 011.212-.247 2.586 2.586 0 011.916.846c.274.286.482.664.651 1.106.17.456.248.99.248 1.601 0 .625-.078 1.159-.248 1.602-.169.455-.377.82-.651 1.106-.274.287-.56.508-.899.638a2.496 2.496 0 01-1.017.208c-.495 0-.951-.078-1.342-.234a1.754 1.754 0 01-.899-.807h-.026v.872h-1.772V6.77h1.876v.04zm3.023 5.154a2.202 2.202 0 00-.286-.69 1.6 1.6 0 00-.495-.481 1.363 1.363 0 00-.717-.182 1.35 1.35 0 00-.704.182 1.458 1.458 0 00-.495.481c-.13.196-.222.43-.287.69a3.41 3.41 0 00-.091.833c0 .274.026.547.091.808.065.26.157.494.287.69.13.195.3.364.495.481.196.117.443.182.704.182a1.4 1.4 0 00.717-.182 1.46 1.46 0 00.495-.482c.13-.195.234-.43.286-.69.066-.26.092-.533.092-.806 0-.3-.026-.573-.092-.834z"/></g><defs><clipPath id="clip0"><path fill="#fff" transform="translate(.571 .587)" d="M0 0h111.467v22H0z"/></clipPath></defs></svg>