<svg width="457" height="58" fill="none" xmlns="http://www.w3.org/2000/svg"><path d="M1.68 41v-5.856l1.872-.432c.224-.064.368-.144.432-.24s.096-.24.096-.432V15.32c0-.192-.032-.336-.096-.432-.064-.096-.208-.176-.432-.24l-1.872-.48V8.36h16.272c3.904 0 6.816.976 8.736 2.928 1.952 1.92 2.928 4.384 2.928 7.392 0 2.592-.576 4.656-1.728 6.192-1.152 1.536-2.624 2.592-4.416 3.168l4.08 5.76c.128.224.352.384.672.48l2.592.624V41H19.584l-3.936-10.992h-1.872v4.08c0 .224.032.384.096.48.064.064.192.128.384.192l1.728.48V41H1.68zm13.68-18c1.472 0 2.56-.32 3.264-.96.704-.64 1.056-1.648 1.056-3.024 0-.896-.256-1.68-.768-2.352-.512-.672-1.296-1.008-2.352-1.008h-2.064c-.288 0-.48.048-.576.144-.096.096-.144.288-.144.576V23h1.584zm18.008 18v-5.856l1.92-.432c.224-.032.368-.08.431-.144.064-.096.096-.272.096-.528V15.32c0-.192-.032-.336-.096-.432-.063-.096-.208-.176-.431-.24l-1.92-.48V8.36h24.96v9.504h-6.769l-.383-1.68c-.032-.224-.096-.368-.193-.432-.063-.064-.223-.096-.48-.096h-4.272c-.288 0-.48.048-.575.144-.096.096-.145.288-.145.576v4.608l9.697.48v6.24l-9.697.48v4.8c0 .288.048.48.145.576.096.096.288.144.575.144h5.184c.257 0 .416-.032.48-.096.096-.096.16-.256.192-.48l.336-1.632h6.768V41H33.367zm90.982.576c-4.064 0-7.424-.96-10.08-2.88-2.656-1.952-3.984-5.216-3.984-9.792v-7.92c0-4.448 1.312-7.744 3.936-9.888 2.656-2.144 6.032-3.216 10.128-3.216 2.432 0 4.512.256 6.24.768 1.728.48 3.696 1.216 5.904 2.208l-.528 9.6h-8.016l-.528-4.368c-.832-.352-1.856-.528-3.072-.528-2.912 0-4.368 1.696-4.368 5.088v8.016c0 1.696.4 2.992 1.2 3.888.8.864 1.936 1.296 3.408 1.296 2.016 0 3.84-.688 5.472-2.064h6v7.056c-1.504.736-3.376 1.376-5.616 1.92-2.24.544-4.272.816-6.096.816zm29.441 0c-4.064 0-7.424-.96-10.08-2.88-2.656-1.952-3.984-5.216-3.984-9.792v-7.92c0-4.448 1.312-7.744 3.936-9.888 2.656-2.144 6.032-3.216 10.128-3.216 4.128 0 7.52 1.072 10.176 3.216 2.656 2.112 3.984 5.408 3.984 9.888v7.92c0 4.576-1.344 7.84-4.032 9.792-2.656 1.92-6.032 2.88-10.128 2.88zm0-7.728c1.472 0 2.576-.432 3.312-1.296.768-.896 1.152-2.192 1.152-3.888v-8.016c0-1.664-.384-2.928-1.152-3.792-.736-.864-1.84-1.296-3.312-1.296-2.912 0-4.368 1.696-4.368 5.088v8.016c0 1.696.368 2.992 1.104 3.888.736.864 1.824 1.296 3.264 1.296zM188.553 8.36h14.544v5.856l-1.872.48c-.224.064-.368.144-.432.24s-.096.24-.096.432V41h-9.072l-8.16-14.832v7.872c0 .224.032.384.096.48.064.064.192.128.384.192l1.968.528V41h-14.592v-5.856l1.92-.432c.224-.032.368-.08.432-.144.064-.096.096-.272.096-.528V15.32c0-.192-.032-.336-.096-.432-.064-.096-.208-.176-.432-.24l-1.92-.48V8.36h11.952l7.728 14.544V15.32c0-.192-.032-.336-.096-.432-.064-.096-.208-.176-.432-.24l-1.92-.48V8.36zm29.756 33.168c-2.56 0-4.8-.272-6.72-.816a39.383 39.383 0 01-5.616-2.064c0-2.752.208-5.712.624-8.88h7.824l.768 3.744c.416.16.928.288 1.536.384.608.096 1.136.144 1.584.144.928 0 1.664-.192 2.208-.576.544-.384.816-.896.816-1.536 0-.736-.368-1.296-1.104-1.68-.704-.416-1.84-.848-3.408-1.296-2.208-.672-4.032-1.36-5.472-2.064-1.44-.736-2.688-1.824-3.744-3.264-1.024-1.44-1.536-3.328-1.536-5.664 0-3.584 1.088-6.16 3.264-7.728 2.176-1.568 5.264-2.352 9.264-2.352 2.176 0 4.096.24 5.76.72 1.664.448 3.504 1.152 5.52 2.112 0 3.456-.176 6.256-.528 8.4h-7.824l-.384-3.312c-.64-.32-1.44-.48-2.4-.48s-1.696.144-2.208.432c-.48.256-.721.72-.721 1.392 0 .736.401 1.376 1.201 1.92.832.512 1.968 1.008 3.408 1.488 2.112.704 3.888 1.424 5.328 2.16 1.472.736 2.72 1.792 3.744 3.168 1.056 1.376 1.584 3.136 1.584 5.28 0 6.912-4.256 10.368-12.768 10.368zM239.688 41v-5.856l1.872-.432c.224-.064.368-.144.432-.24s.096-.24.096-.432V17.96l-.048-2.304h-1.008c-.256 0-.432.032-.528.096-.064.064-.112.208-.144.432l-.384 1.68h-6.24V8.36h26.4v9.504h-6.24l-.384-1.68c-.032-.224-.096-.368-.192-.432-.064-.064-.224-.096-.48-.096h-1.008l-.048 2.304v16.08c0 .224.032.384.096.48.064.064.192.128.384.192l1.92.528V41h-14.496zm23.811 0v-5.856l1.92-.432c.224-.032.368-.08.432-.144.064-.096.096-.272.096-.528V15.32c0-.192-.032-.336-.096-.432-.064-.096-.208-.176-.432-.24l-1.92-.48V8.36h14.592v5.856l-1.92.48c-.224.064-.368.144-.432.24s-.096.24-.096.432V34.04c0 .224.032.384.096.48.064.064.192.128.384.192l1.968.528V41h-14.592zm23.907 0v-5.856l1.872-.432c.224-.064.368-.144.432-.24s.096-.24.096-.432V17.96l-.048-2.304h-1.008c-.256 0-.432.032-.528.096-.064.064-.112.208-.144.432l-.384 1.68h-6.24V8.36h26.4v9.504h-6.24l-.384-1.68c-.032-.224-.096-.368-.192-.432-.064-.064-.224-.096-.48-.096h-1.008l-.048 2.304v16.08c0 .224.032.384.096.48.064.064.192.128.384.192l1.92.528V41h-14.496zm38.212.576c-4.48 0-7.872-1.072-10.176-3.216-2.304-2.144-3.456-5.296-3.456-9.456V15.272c0-.224-.032-.368-.096-.432-.064-.096-.192-.176-.384-.24l-1.728-.48V8.36h14.064v5.712l-1.68.528c-.192.064-.32.144-.384.24-.064.064-.096.192-.096.384v13.44c0 1.92.288 3.264.864 4.032.576.768 1.6 1.152 3.072 1.152 1.504 0 2.544-.384 3.12-1.152.608-.768.912-2.112.912-4.032V15.272c0-.224-.032-.368-.096-.432-.064-.096-.192-.176-.384-.24l-1.728-.48V8.36h14.112v5.712l-1.728.528c-.192.064-.32.144-.384.24-.064.064-.096.192-.096.384v13.68c0 4.16-1.168 7.312-3.504 9.456-2.304 2.144-5.712 3.216-10.224 3.216zM349.422 41v-5.856l1.872-.432c.224-.064.368-.144.432-.24s.096-.24.096-.432V17.96l-.048-2.304h-1.008c-.256 0-.432.032-.528.096-.064.064-.112.208-.144.432l-.384 1.68h-6.24V8.36h26.4v9.504h-6.24l-.384-1.68c-.032-.224-.096-.368-.192-.432-.064-.064-.224-.096-.48-.096h-1.008l-.048 2.304v16.08c0 .224.032.384.096.48.064.064.192.128.384.192l1.92.528V41h-14.496zm23.812 0v-5.856l1.92-.432c.224-.032.368-.08.432-.144.064-.096.096-.272.096-.528V15.32c0-.192-.032-.336-.096-.432-.064-.096-.208-.176-.432-.24l-1.92-.48V8.36h14.592v5.856l-1.92.48c-.224.064-.368.144-.432.24s-.096.24-.096.432V34.04c0 .224.032.384.096.48.064.064.192.128.384.192l1.968.528V41h-14.592zm32.979.576c-4.064 0-7.424-.96-10.08-2.88-2.656-1.952-3.984-5.216-3.984-9.792v-7.92c0-4.448 1.312-7.744 3.936-9.888 2.656-2.144 6.032-3.216 10.128-3.216 4.128 0 7.52 1.072 10.176 3.216 2.656 2.112 3.984 5.408 3.984 9.888v7.92c0 4.576-1.344 7.84-4.032 9.792-2.656 1.92-6.032 2.88-10.128 2.88zm0-7.728c1.472 0 2.576-.432 3.312-1.296.768-.896 1.152-2.192 1.152-3.888v-8.016c0-1.664-.384-2.928-1.152-3.792-.736-.864-1.84-1.296-3.312-1.296-2.912 0-4.368 1.696-4.368 5.088v8.016c0 1.696.368 2.992 1.104 3.888.736.864 1.824 1.296 3.264 1.296zM440.975 8.36h14.544v5.856l-1.872.48c-.224.064-.368.144-.432.24s-.096.24-.096.432V41h-9.072l-8.16-14.832v7.872c0 .224.032.384.096.48.064.064.192.128.384.192l1.968.528V41h-14.592v-5.856l1.92-.432c.224-.032.368-.08.432-.144.064-.096.096-.272.096-.528V15.32c0-.192-.032-.336-.096-.432-.064-.096-.208-.176-.432-.24l-1.92-.48V8.36h11.952l7.728 14.544V15.32c0-.192-.032-.336-.096-.432-.064-.096-.208-.176-.432-.24l-1.92-.48V8.36zM91.568 31.693v-1.78c2.302-.088 3.084-.58 3.084-3.085v-9.151h4.416v1.419l-.753.086c-.84.087-1.216.362-1.216 1.448v6.256c0 5.155-5.531 4.807-5.531 4.807zM73.307 26.9v-6.27c0-1.086-.362-1.36-1.216-1.448l-.753-.086v-1.42h4.416v9.166c0 2.505.782 2.998 3.084 3.085v1.78c0-.014-5.53.334-5.53-4.807z" fill="#fff"/><path d="M77.71 36.616v-1.433l.753-.116c.84-.116 1.216-.42 1.216-1.448v-.217c0-1.636.753-2.505 2.447-2.94 0 0-2.447-.579-2.447-3.562v-6.27c0-1.086-.362-1.36-1.216-1.448l-.753-.086v-1.42h4.416v9.166c0 2.505.782 2.998 3.084 3.085v1.78c-2.316 0-3.084.638-3.084 1.695v3.214H77.71zm10.585 0v-3.214c0-1.057-.768-1.694-3.085-1.694v-1.781c2.303-.087 3.085-.58 3.085-3.085v-9.165h4.416v1.419l-.753.086c-.84.087-1.216.362-1.216 1.448v6.256c0 2.997-2.447 3.562-2.447 3.562 1.694.42 2.447 1.303 2.447 2.94v.217c0 1.028.362 1.332 1.216 1.448l.753.115v1.42h-4.416v.028zM105.993 13H65v2.215h40.993v-2.216zm0-4.75H65v2.215h40.993V8.25zm-5.708 30.625H71.338v2.375h28.947v-2.375z" fill="#fff"/></svg>