<svg width="154" height="24" fill="none" xmlns="http://www.w3.org/2000/svg"><g clip-path="url(#clip0)" fill="#000"><path d="M0 23.21V18.4h1.47V5.22H0V.41h19.78v8.85h-6.56V5.22H9.67v4.63h2.58v3.34H9.67v5.22h3.55v-4.63h6.56v9.43H0zm22.36 0V18.4h1.47V5.22h-1.47V.41h12.36v4.81h-2.7V18.4h2.64v-2.7h5.83v7.5H22.36v.01zm20.6 0V18.4h1.47V5.22h-1.47V.41h19.78v8.85h-6.56V5.22h-3.55v4.63h2.58v3.34h-2.58v5.22h3.55v-4.63h6.56v9.43H42.96zm25.18-2.41c-2-1.88-3-4.87-3-9C65.14 3.94 68.96 0 76.62 0c1.86 0 3.58.22 5.17.67 1.59.45 2.78.95 3.56 1.49v7.33h-7.03V7.38c0-.74-.17-1.29-.5-1.64-.33-.35-.83-.53-1.49-.53-.67 0-1.16.18-1.49.53-.33.35-.5.9-.5 1.64v8.85c0 .74.17 1.29.5 1.64.33.35.83.53 1.49.53s1.16-.18 1.49-.53c.33-.35.5-.9.5-1.64v-2.37h7.03v7.59c-.8.55-1.99 1.04-3.56 1.49-1.57.45-3.28.67-5.11.67-3.69.01-6.54-.93-8.54-2.81zm41.65-13.3h-5.04V5.22h-1.87V18.4h2.05v4.81H92.62V18.4h2.05V5.22H92.8V7.5h-5.04V.41h22.04V7.5h-.01zm8.33-5.36c.28 0 .53.06.73.19.21.12.37.3.48.53.11.23.16.49.16.79v.33h-2.28c.01.38.11.66.29.86.18.2.44.3.77.3.21 0 .4-.02.56-.06.16-.04.33-.1.51-.17v.48c-.17.07-.34.13-.5.16-.17.04-.36.05-.59.05-.32 0-.6-.06-.84-.19a1.34 1.34 0 01-.56-.57c-.13-.25-.2-.57-.2-.94 0-.36.06-.68.18-.94.12-.26.29-.46.52-.6.22-.15.48-.22.77-.22zm0 .45c-.26 0-.47.08-.62.25-.15.17-.24.4-.27.7h1.7c0-.28-.07-.51-.2-.69-.13-.17-.34-.26-.61-.26z"/><path d="M118.07 7.93c-2.19 0-3.97-1.78-3.97-3.97 0-2.19 1.78-3.97 3.97-3.97 2.19 0 3.97 1.78 3.97 3.97 0 2.19-1.78 3.97-3.97 3.97zm0-7.34c-1.86 0-3.38 1.52-3.38 3.38 0 1.86 1.52 3.38 3.38 3.38 1.86 0 3.38-1.52 3.38-3.38 0-1.86-1.51-3.38-3.38-3.38z"/></g><path d="M143.356 16.607v-1.23c1.591-.06 2.131-.4 2.131-2.131V6.923h3.051v.98l-.52.06c-.58.06-.84.25-.84 1v4.323c0 3.561-3.822 3.321-3.822 3.321zm-12.616-3.311V8.964c0-.75-.251-.94-.841-1l-.52-.06v-.981h3.051v6.333c0 1.73.54 2.07 2.131 2.13v1.231c0-.01-3.821.23-3.821-3.321z" fill="#131313"/><path d="M133.781 20.009v-.99l.521-.08c.58-.08.84-.291.84-1.001v-.15c0-1.13.52-1.731 1.691-2.031 0 0-1.691-.4-1.691-2.461V8.964c0-.75-.25-.94-.84-1l-.521-.06v-.981h3.052v6.333c0 1.73.54 2.07 2.131 2.13v1.231c-1.601 0-2.131.44-2.131 1.17v2.222h-3.052zm7.313 0v-2.221c0-.73-.53-1.17-2.13-1.17v-1.231c1.59-.06 2.13-.4 2.13-2.131V6.923h3.052v.98l-.52.06c-.581.06-.841.25-.841 1v4.323c0 2.07-1.691 2.46-1.691 2.46 1.171.29 1.691.901 1.691 2.032v.15c0 .71.25.92.841 1l.52.08v.98h-3.052v.02zm12.228-16.317H125v1.53h28.322v-1.53zm0-3.282H125v1.53h28.322V.41zm-3.943 21.16h-20v1.64h20v-1.64z" fill="#131313"/><defs><clipPath id="clip0"><path fill="#fff" d="M0 0h122.04v23.62H0z"/></clipPath></defs></svg>