<svg width="80" height="80" viewBox="0 0 80 80" fill="none" xmlns="http://www.w3.org/2000/svg">
<path d="M40 80C62.0914 80 80 62.0914 80 40C80 17.9086 62.0914 0 40 0C17.9086 0 0 17.9086 0 40C0 62.0914 17.9086 80 40 80Z" fill="#131313"/>
<path d="M45.7333 50.4667H19.2667V14.6H37.1333L45.7333 23.2667V50.4667Z" fill="#131313" stroke="white" stroke-width="2" stroke-miterlimit="10"/>
<path d="M40.8 19.6H24.2" stroke="#575757" stroke-width="2" stroke-miterlimit="10"/>
<path d="M40.8 23.2H24.2" stroke="#575757" stroke-width="2" stroke-miterlimit="10"/>
<path d="M40.8 26.8667H24.2" stroke="#575757" stroke-width="2" stroke-miterlimit="10"/>
<path d="M40.8 26.8667H36.6667" stroke="#0BB5BA" stroke-width="2" stroke-miterlimit="10"/>
<path d="M40.8 30.4667H24.2" stroke="#0BB5BA" stroke-width="2" stroke-miterlimit="10"/>
<path d="M40.8 34.1334H24.2" stroke="#0BB5BA" stroke-width="2" stroke-miterlimit="10"/>
<path d="M40.8 37.7333H24.2" stroke="#575757" stroke-width="2" stroke-miterlimit="10"/>
<path d="M27.8666 37.7333H24.2" stroke="#0BB5BA" stroke-width="2" stroke-miterlimit="10"/>
<path d="M40.8 41.4H24.2" stroke="#575757" stroke-width="2" stroke-miterlimit="10"/>
<path d="M40.8 45H24.2" stroke="#575757" stroke-width="2" stroke-miterlimit="10"/>
<path d="M37.1333 23.2667H45.7333L37.1333 14.6V23.2667Z" fill="#131313" stroke="white" stroke-width="2" stroke-miterlimit="10" stroke-linejoin="round"/>
<path d="M60.7333 66.3333H34.2667V30.4667H52.1333L60.7333 39.1333V66.3333Z" fill="#131313" stroke="white" stroke-width="2" stroke-miterlimit="10"/>
<path d="M55.8 35.4H39.2" stroke="#575757" stroke-width="2" stroke-miterlimit="10"/>
<path d="M55.8 39.0667H39.2" stroke="#575757" stroke-width="2" stroke-miterlimit="10"/>
<path d="M55.8 39.0667H40.8667" stroke="#0BB5BA" stroke-width="2" stroke-miterlimit="10"/>
<path d="M55.8 42.6667H39.2" stroke="#0BB5BA" stroke-width="2" stroke-miterlimit="10"/>
<path d="M55.8 46.3333H39.2" stroke="#0BB5BA" stroke-width="2" stroke-miterlimit="10"/>
<path d="M55.8 50H39.2" stroke="#0BB5BA" stroke-width="2" stroke-miterlimit="10"/>
<path d="M55.8 53.6H39.2" stroke="#0BB5BA" stroke-width="2" stroke-miterlimit="10"/>
<path d="M55.8 57.2667H39.2" stroke="#575757" stroke-width="2" stroke-miterlimit="10"/>
<path d="M53 57.2667H39.2" stroke="#0BB5BA" stroke-width="2" stroke-miterlimit="10"/>
<path d="M55.8 60.8667H39.2" stroke="#575757" stroke-width="2" stroke-miterlimit="10"/>
<path d="M52.1333 39.1333H60.7333L52.1333 30.4667V39.1333Z" fill="#131313" stroke="white" stroke-width="2" stroke-miterlimit="10" stroke-linejoin="round"/>
</svg>
