<svg width="80" height="80" viewBox="0 0 80 80" fill="none" xmlns="http://www.w3.org/2000/svg">
<path d="M40 80C62.0914 80 80 62.0914 80 40C80 17.9086 62.0914 0 40 0C17.9086 0 0 17.9086 0 40C0 62.0914 17.9086 80 40 80Z" fill="#131313"/>
<path d="M71.4667 42.6666C71.8 40.0667 71 37.8 68.2667 36.4C68.2667 36.4 62.6 33.2 61.5333 32.4C60.3333 31.5333 59 30.6 57.3333 30.4C55.6667 30.2 54 30.4 51.8667 30.4C49.7333 30.4 49.4 31.0667 49.2 32.1333C49.0667 33.2667 49.5333 33.4 49.5333 33.4C47.3333 33.2 46.7333 33.5333 46.0667 35.2667C45.4 36.9333 46.2667 37.7333 46.2667 37.7333C44.2 37.4666 43.8 38.2667 43.6 39.6667C43.4 41.0667 44.2 41.6666 44.2 41.6666C43.0667 41.5333 42.7333 42 42.4 43.4666C42.0667 44.9333 43.8 46.3333 44.9333 47.0666C46.0667 47.8 52.6667 49.8 52.6667 49.8C52.8 52 52.9333 53.0666 51 55.7333C49.0667 58.4 49.1333 60.5333 49.8667 63.6666C50.6 66.8 52.9333 65.9333 52.9333 65.9333C52.9333 65.9333 53.2 61.8666 53.4 60.5333C53.5333 59.2 55.0667 57.6 56.9333 56.2C59.8 53.9333 66.4667 49.2666 66.4667 49.2666C70 47.2 71.1333 45.4 71.4667 42.6666Z" stroke="#F5F5F5" stroke-width="2" stroke-miterlimit="10" stroke-linecap="round" stroke-linejoin="round"/>
<path d="M44.2 41.7333L49.4 42.8666" stroke="#F5F5F5" stroke-width="1.5" stroke-miterlimit="10" stroke-linecap="round" stroke-linejoin="round"/>
<path d="M46.3333 37.7333L52.1333 38.5333" stroke="#F5F5F5" stroke-width="1.5" stroke-miterlimit="10" stroke-linecap="round" stroke-linejoin="round"/>
<path d="M49.6 33.4H54.5333" stroke="#F5F5F5" stroke-width="1.5" stroke-miterlimit="10" stroke-linecap="round" stroke-linejoin="round"/>
<path d="M52.4 49.4L55.2667 50.8667" stroke="#F5F5F5" stroke-miterlimit="10" stroke-linecap="round" stroke-linejoin="round"/>
<path d="M12.7333 37.6667C12.7333 37.6667 15.2 30.4667 15.4667 28.7333C15.7333 27 16.5333 26.4667 18.0667 25.7333C19.6 25 22.8 22.1333 24.0667 19C25.3333 15.8667 25.2667 16.2667 25.2667 16.2667C25.2667 16.2667 27.3333 16.2 27.6 20C27.8667 23.8 24.8 26.6 24.1333 27.6667C23.4667 28.7333 23.3333 30.1333 23.3333 30.1333C23.3333 30.1333 27.8 29.1333 28.6667 29C29.5333 28.8667 33.8667 28.7333 35.4667 29C37.0667 29.2667 37.2 30 37.5333 31C37.8 32 38.2667 33 36.4667 34C36.4667 34 37.7333 34.3333 38.1333 36C38.4667 37.6667 38.1333 38.7333 35.8 39.6667C35.8 39.6667 36.8667 40.2 36.8 41.6C36.7333 43 36.7333 43.6667 35.3333 44.0667C35.3333 44.0667 36.2 45.9333 34.9333 46.8667C33.6667 47.8 31.6 48.2 29.7333 48.2C29.7333 48.2 25.8667 51.3333 22.5333 52.0667C19.6667 52.6667 17.3333 51.8667 17.3333 51.8667L13.5333 53.2L8.40001 39.4667L12.7333 37.6667Z" stroke="#F5F5F5" stroke-width="2" stroke-miterlimit="10" stroke-linecap="round" stroke-linejoin="round"/>
<path d="M23 29.8C23 29.8 24.4 35.2 23.4667 37.8667" stroke="#F5F5F5" stroke-miterlimit="10" stroke-linecap="round" stroke-linejoin="round"/>
<path d="M36.5333 34C36.5333 34 32.2667 35.8 31.0667 36.1334C29.8667 36.4667 26.8 37 26.1333 37C25.4 37.0667 24.6667 36.3334 25.3333 34.6667C25.8667 33.3334 29.9333 32.3334 29.9333 32.3334C29.9333 32.3334 31.8667 30.1334 33.3333 29.6667" stroke="#F5F5F5" stroke-width="1.5" stroke-miterlimit="10" stroke-linecap="round" stroke-linejoin="round"/>
<path d="M28.2 36.7333C28.2 36.7333 28.6667 36.2667 28.4 35.7333C28.1333 35.2 27.4667 34.6 26.2667 34.9333C25.0667 35.2667 25.0667 35.6 25.0667 35.8" stroke="#F5F5F5" stroke-miterlimit="10" stroke-linecap="round" stroke-linejoin="round"/>
<path d="M35.8667 39.6C35.8667 39.6 31.8667 41.2 30.8 41.4667C29.7333 41.7333 27.5333 40.8 26.3333 40.5333C25.2 40.2667 23.7333 38.6 26.3333 37" stroke="#F5F5F5" stroke-width="1.5" stroke-miterlimit="10" stroke-linecap="round" stroke-linejoin="round"/>
<path d="M24.9333 38.9333C24.9333 38.9333 24.8 38.2 26.1333 38.2C26.9333 38.2 27.2667 38.5333 27.2 39.0667C27.2 39.8 27.8 40.8 25.8667 40.4" stroke="#F5F5F5" stroke-miterlimit="10" stroke-linecap="round" stroke-linejoin="round"/>
<path d="M29 41.2667L28.1333 41.8C28.1333 41.8 25.2 41.6 23.7333 42.1333C22.2667 42.6667 22.5333 44.7333 23.8667 45.0667C25.1333 45.3333 28.1333 45.7333 29.3333 45.8C30.5333 45.8667 35.4 44.1333 35.4 44.1333" stroke="#F5F5F5" stroke-width="1.5" stroke-miterlimit="10" stroke-linecap="round" stroke-linejoin="round"/>
<path d="M23.2 44.7333C23.2 44.7333 25.8667 45.1333 26.1333 44.4C26.4 43.6667 26.2 42.6 25.0667 42.6C23.9333 42.5333 23.2 42.3333 22.7333 43.2667" stroke="#F5F5F5" stroke-miterlimit="10" stroke-linecap="round" stroke-linejoin="round"/>
<path d="M29.7333 48.2C29.7333 48.2 26.5334 48.0667 25.6 47.2667C24.6667 46.5333 25 45.4667 25.7333 45.3333" stroke="#F5F5F5" stroke-width="1.5" stroke-miterlimit="10" stroke-linecap="round" stroke-linejoin="round"/>
<path d="M25.1334 46.8C25.1334 46.8 25.8667 47.2667 26.7333 47.2C27.6 47.1333 27.5333 46.5333 27.5333 46.1333C27.5333 45.7333 26.4667 45.4 25.2667 45.6667" stroke="#F5F5F5" stroke-miterlimit="10" stroke-linecap="round" stroke-linejoin="round"/>
<path d="M13.8667 43.7333C13.8667 43.7333 17.1333 46.6 22.8 43.8667" stroke="#F5F5F5" stroke-miterlimit="10" stroke-linecap="round" stroke-linejoin="round"/>
</svg>
